<svg id="Layer_1" data-name="Layer 1" xmlns="http://www.w3.org/2000/svg" viewBox="249.46 90"><defs><style>.cls-1{fill:#0a457e;}.cls-2{fill:#f39527;}</style></defs><title>my3bb2</title><path class="cls-1" d="M195.3,322a3.56,3.56,0,0,1-.09-1c2.93-8.65,2.92-8.58,12.16-7.8a63,63,0,0,0,20.7-1.33,20.42,20.42,0,0,0,7.15-3.36c7.06-5.2,7-14.82-.07-19.93a28.54,28.54,0,0,0-13.33-5c-12.51-1.59-24.67-.56-36.19,5-4,1.93-7.13,4.93-10.3,8a31.3,31.3,0,0,1,20-19.84c16.6-5.88,32.81-4.15,48.84,1.87,6.14,2.3,11.41,6,14.64,12,3.55,6.59,1.68,13.48-2.35,18.78a19.44,19.44,0,0,1-6.22,5.18c-1.05.58-2.14,1.19-2.07,2.44s1.58,1.35,2.53,1.8c7.25,3.42,12.51,8.58,13.64,16.8,1,7.15-2.37,12.73-7.82,16.95-5.86,4.53-12.64,6.62-20,8.29a87,87,0,0,1-28.36,1.84c-9.5-.94-18.25-3.93-25.33-10.7a16.16,16.16,0,0,1-4.74-7.49,57.25,57.25,0,0,0,15.2,6.37c12.77,2.94,25.48,3.47,38-1.08a21.79,21.79,0,0,0,6.56-3.69c6.12-5.05,6-11.77-.34-16.58-7-5.3-15.32-6.91-23.81-7.7A99.87,99.87,0,0,0,195.3,322Z" transform="translate(-175.33 -273.08)"/><path class="cls-2" d="M412.29,312.35c2.23,1.86,4.9,2.63,7.11,4.3,8.14,6.12,6.84,21-2.46,25.38A32.85,32.85,0,0,1,403,345c-16.68.08-33.37-.05-50,.09-3,0-3.63-1-3.62-3.72.1-18.71.15-37.41,0-56.11,0-3.15,1-3.74,3.9-3.72q24.64.17,49.29,0A28.82,28.82,0,0,1,414,283.69c5,2.09,7.59,6.36,8.12,11.82.59,6-.44,11.32-6.21,14.64C414.73,310.82,413.6,311.54,412.29,312.35Zm-28.07,5.42c-5.68,0-11.35.1-17,0-2.5-.07-3.35.86-3.27,3.28a88.31,88.31,0,0,1-.15,9.06c-.23,3.22,1,4.57,4.31,4.53,10.72-.11,21.43,0,32.15-.06,5.94,0,9.51-3.29,9.44-8.4s-3.56-8.27-9.58-8.35C394.81,317.71,389.51,317.77,384.22,317.77Zm-.6-10.35c5.17,0,10.34,0,15.51,0,5.4,0,8.35-2.61,8.49-7.4.15-5.43-2.16-8.14-7.95-8.27-11-.23-21.94-.08-32.9-.17-2.37,0-3.1,1.08-3.07,3.22.06,3.27.08,6.55,0,9.83-.06,2.11.79,2.87,2.91,2.83C372.27,307.36,377.94,307.43,383.62,307.42Z" transform="translate(-175.33 -273.08)"/><path class="cls-2" d="M334.19,312.73c1.64.46,3,.9,4.45,1.25,6.06,1.48,9.22,11.13,8.19,17.55-1.34,8.27-7.6,12.93-18.46,13.12-12.24.22-24.5.09-36.75.1-5.43,0-10.86-.07-16.29,0-2.35,0-3.42-.65-3.41-3.23q.12-28.41,0-56.84c0-2.45.79-3.2,3.29-3.18,17.43.12,34.87-.14,52.29.2,6.21.12,12.59,1.75,15.52,8.12C347.11,298.77,345.49,307.85,334.19,312.73Zm-27.86,21.8c5.8,0,11.61.16,17.41,0,5.32-.19,8.39-3.39,8.41-8.23s-3.09-8.27-8.3-8.35c-11.73-.19-23.46-.06-35.19-.1-1.79,0-2.47.68-2.44,2.45.07,3.79.12,7.58,0,11.35-.1,2.38.83,3,3.1,3C295,334.44,300.65,334.53,306.33,334.53Zm.13-27.09v0c5.17,0,10.35-.27,15.5.08,4.87.33,8.09-3,8.2-7.68.11-5.2-2.23-8-7.73-8.07-11.09-.18-22.19,0-33.28-.1-2,0-3,.63-3,2.83.11,3.4.14,6.81,0,10.21-.08,2.18.8,2.83,2.88,2.8C294.86,307.38,300.66,307.44,306.46,307.44Z" transform="translate(-175.33 -273.08)"/><path class="cls-1" d="M358.77,355c1.09-1.76-2.41-6.81,3.45-5.69,3.16.6,8.72-3.25,9.15,3.51.64,9.84-1.57,9.1-6.21,9.14C358.78,362,358.78,362,358.77,355Zm6.34,4.18c.88-.8,3.08.84,3.21-1.33.12-1.93-1.88-1.24-2.92-1.17s-3.24-1-3.38,1.12S363.9,358.67,365.11,359.18Zm0-5.21c.85-.65,2.85.74,3-1,.11-1.58-1.79-.9-2.75-.9s-3-.82-3.12.87S364,353.51,365.08,354Z" transform="translate(-175.33 -273.08)"/><path class="cls-1" d="M272.31,355.39c0-6.18,0-6.19,6.11-6.21,1.13,0,2.27,0,3.4,0a4.62,4.62,0,0,1,1.48.22c2,.77,2.11,2.65,1.58,4.11-1,2.7,2.64,7-2.62,8.17a15.82,15.82,0,0,1-3.38.14C272.34,361.86,272.34,361.85,272.31,355.39Zm6.65,3.8c.81-.74,2.85.82,2.91-1.21.06-2.27-2.06-1.3-3.21-1.27s-3.29-1-3.22,1.18S277.66,358.59,279,359.19Zm-.28-5.26c1-.42,3,.8,2.89-1.11-.1-1.61-2-.79-3.12-.77s-3-.85-2.93,1C275.6,354.6,277.58,353.58,278.68,353.93Z" transform="translate(-175.33 -273.08)"/><path class="cls-1" d="M303.45,361.38c-3.28,1.32-5-.34-6.79-2.21-.92-1-1.8-2.29-3.46-1.77s-.74,1.91-.87,2.9-.61,1.53-1.69,1.54-1.44-.73-1.44-1.71c0-3,.05-6.05,0-9.08,0-1.54.76-1.92,2.11-1.89,2.14,0,4.29,0,6.43,0,3.72.07,5.86,2.42,4,5.55S300.82,359.54,303.45,361.38Zm-8.26-6.68c1.23-.46,3.3.75,3.41-1.27.13-2.17-2-1.27-3.09-1.23-1.29,0-3.58-.94-3.71,1C291.65,355.4,294,354.24,295.19,354.7Z" transform="translate(-175.33 -273.08)"/><path class="cls-1" d="M340.9,355.78c0-6.62,0-6.62,5.7-6.59,5.86,0,8.51,1.94,8.54,6.16,0,4.79-2.82,6.29-10.6,6.57C338.48,362.14,341.82,357.74,340.9,355.78Zm3-.55c-.13,2.21-.36,4.14,2.89,3.87,2.74-.22,5.22-.47,5.13-3.92-.07-3.17-2.56-3-4.89-3.24C344.28,351.69,343.4,352.81,343.93,355.23Z" transform="translate(-175.33 -273.08)"/><path class="cls-1" d="M410.4,355.3c0-6.14,0-6.14,5.74-6.11s8.35,2,8.28,6.3c-.08,4.84-2.72,6.45-10.59,6.35C409.81,361.78,410.4,362.62,410.4,355.3Zm3.13,0c-.28,2.25-.32,4.11,2.87,3.75,2.5-.27,4.93-.24,4.92-3.72,0-3.33-2.38-3.19-4.71-3.44C413.77,351.63,413,352.89,413.53,355.34Z" transform="translate(-175.33 -273.08)"/><path class="cls-1" d="M313.19,361.83c-1.65,0-2.91.05-4.17,0-2.07-.11-3.21-1.1-3.19-3.33.08-10.1-1.07-9.36,8.57-9.26,1.89,0,4.58-1,5.37,1.49,1,3.22,1.42,6.93-.24,9.92C318.24,363,315.1,361.51,313.19,361.83Zm-.41-9.63c-2.81-.45-4.8-.44-4.66,3.51.11,3.28,1.19,4.08,4.23,4s5-.44,5.06-4.47C317.46,350.94,314.79,352.35,312.78,352.2Z" transform="translate(-175.33 -273.08)"/><path class="cls-1" d="M394.63,353.63c0,2.38,0,3.83,0,5.28,0,1.09.28,2.39-1.58,2.29-1.57-.08-1.33-1.18-1.34-2.16,0-2.51,0-5,0-7.55,0-.82-.35-1.87.84-2.22a2.47,2.47,0,0,1,2.35.9c2.33,2.06,4.63,4.13,7.64,6.82v-6c0-.95.18-1.74,1.38-1.83,1.51-.11,1.56.89,1.56,2,0,2.9,0,5.79,0,8.69,0,2.64-1.26,2.37-2.76,1.07C400.23,358.73,397.78,356.47,394.63,353.63Z" transform="translate(-175.33 -273.08)"/><path class="cls-1" d="M338.53,361.39c-3.74,1.85-4.66-2.74-8-2.8s-4.44,4.14-8.11,2.94c2.14-3.93,4.07-7.73,6.26-11.37a2,2,0,0,1,3.71,0C334.56,353.82,336.48,357.62,338.53,361.39Zm-9.8-5.25a4.47,4.47,0,0,0,3.58-.14l-1.81-3A5.13,5.13,0,0,0,328.73,356.14Z" transform="translate(-175.33 -273.08)"/><path class="cls-1" d="M375.28,361.81c-1.48,0-2-.37-1.39-1.55,1.87-3.42,3.57-7,5.71-10.19,1.11-1.67,2.82-1.33,3.87.54,1.67,3,3.36,5.9,4.95,8.9.32.63,1.47,1.5.2,2.19a2.3,2.3,0,0,1-2.47-.38c-4.22-3.3-5.38-3.28-9.8,0A3.67,3.67,0,0,1,375.28,361.81Zm7.78-5.54a6.35,6.35,0,0,0-1.75-3.21c-.94.75-1.9,1.88-1.52,2.8C380.28,357,381.74,356.3,383.06,356.27Z" transform="translate(-175.33 -273.08)"/></svg>